<svg width="42" height="42" fill="none" xmlns="http://www.w3.org/2000/svg"><path d="M14.338 20.5a.5.5 0 100 1v-1zm10.352-4.022a.5.5 0 10-.704.71l.704-.71zm1.118 1.812l.352-.355-.352.355zm0 5.42l-.352-.354.352.355zm-1.822 1.102a.5.5 0 10.704.71l-.704-.71zm3.67-4.073l.495-.063-.496.063zm0 .522l.495.064-.496-.064zM21 40.5C10.23 40.5 1.5 31.77 1.5 21h-1C.5 32.322 9.678 41.5 21 41.5v-1zM1.5 21C1.5 10.23 10.23 1.5 21 1.5v-1C9.678.5.5 9.678.5 21h1zM21 1.5c10.77 0 19.5 8.73 19.5 19.5h1C41.5 9.678 32.322.5 21 .5v1zM40.5 21c0 10.77-8.73 19.5-19.5 19.5v1c11.322 0 20.5-9.178 20.5-20.5h-1zm-26.162.5h13.334v-1H14.338v1zm9.649-4.311l1.469 1.456.704-.71-1.47-1.457-.704.71zm1.469 6.167l-1.47 1.456.704.71 1.47-1.456-.704-.71zm0-4.711c.594.589 1.009 1.001 1.291 1.352.276.344.384.58.412.805l.992-.126c-.061-.483-.292-.89-.624-1.305-.326-.406-.79-.864-1.367-1.436l-.704.71zm.704 5.42c.577-.572 1.04-1.03 1.367-1.436.332-.414.563-.822.624-1.305l-.992-.126c-.028.225-.136.461-.412.805-.282.351-.697.764-1.291 1.353l.704.71zm1-3.263c.008.066.012.132.012.198h1a2.57 2.57 0 00-.02-.324l-.993.126zm.012.198c0 .066-.004.132-.013.198l.992.127a2.57 2.57 0 00.02-.325h-1z" fill="#75605F"/></svg>