<svg width="36" height="36" fill="none" xmlns="http://www.w3.org/2000/svg"><path d="M24 13.5l-5.195 6.234c-1.069 1.282-1.602 1.923-2.305 1.923-.703 0-1.237-.641-2.305-1.923L12 17.1M8.392 7.528a4.435 4.435 0 005.343-3.084c1.225-4.29 7.305-4.29 8.53 0a4.435 4.435 0 005.343 3.084c4.328-1.084 7.368 4.182 4.264 7.387a4.435 4.435 0 000 6.17c3.104 3.205.064 8.471-4.264 7.386a4.435 4.435 0 00-5.343 3.085c-1.225 4.29-7.305 4.29-8.53 0a4.435 4.435 0 00-5.343-3.085c-4.328 1.085-7.368-4.18-4.265-7.386a4.435 4.435 0 000-6.17c-3.103-3.205-.063-8.471 4.265-7.387z" stroke="#75605F" stroke-width="1.5" stroke-linecap="round"/></svg>