<svg width="20" height="20" fill="none" xmlns="http://www.w3.org/2000/svg"><g opacity=".6" fill-rule="evenodd" clip-rule="evenodd" fill="#75605F"><path d="M10 5.208a3.125 3.125 0 100 6.25 3.125 3.125 0 000-6.25zM8.125 8.335a1.875 1.875 0 113.75 0 1.875 1.875 0 01-3.75 0z"/><path d="M10 .208c-4.07 0-7.292 3.536-7.292 7.8 0 1.367.68 2.977 1.534 4.488.869 1.535 1.977 3.068 2.949 4.307l.032.041c.475.605.879 1.12 1.27 1.476.428.389.9.643 1.507.643.608 0 1.079-.254 1.507-.643.391-.355.795-.87 1.27-1.476l.032-.041c.972-1.24 2.08-2.772 2.949-4.307.855-1.511 1.534-3.121 1.534-4.489 0-4.263-3.223-7.799-7.292-7.799zm-6.042 7.8c0-3.661 2.748-6.55 6.042-6.55 3.294 0 6.042 2.889 6.042 6.55 0 1.021-.533 2.39-1.372 3.872-.825 1.459-1.891 2.936-2.844 4.152-.516.657-.856 1.087-1.16 1.363-.277.252-.463.318-.666.318s-.389-.066-.666-.318c-.304-.276-.644-.706-1.16-1.363-.952-1.216-2.019-2.693-2.844-4.152-.839-1.483-1.372-2.85-1.372-3.873z"/></g></svg>