<svg width="137" height="43" fill="none" xmlns="http://www.w3.org/2000/svg"><g clip-path="url(#clip0_464_1355)" fill="#333"><path d="M35.673 23.439c-2.92-4.421-6.503-1.999-11.26-.848-4.756 1.15-3.613-6.36.663-13.021 4.275-6.662.09-9.084-3.131-6.904C19.81 4.11 9.087 8.977 7.192 4.3c-.5-1.232-.987-2.551-1.77-3.338-.166-.168-.24-.061-.184.123.116.376.207.667.374 1.384.175.715.364 1.589.552 2.598.196 1.008.369 2.153.518 3.408.14 1.256.275 2.622.332 4.07.043.724.057 1.469.076 2.23.014.38.006.766.003 1.154l-.01 1.177a45.19 45.19 0 00.002 2.358c.012.395.034.79.067 1.18.033.389.077.777.158 1.131.04.177.088.346.147.489a.93.93 0 00.183.301c.056.046.071.058.162.065a1.2 1.2 0 00.392-.062c.326-.095.696-.262 1.074-.43.38-.17.775-.348 1.189-.499.824-.304 1.733-.52 2.662-.508.864.02 1.729.094 2.581.269a9.59 9.59 0 012.442.86c.758.39 1.449.849 2.093 1.33 1.289.961 2.4 2.01 3.449 2.999 1.046.99 2.007 1.964 2.883 2.844.42.399.9.74 1.363 1.026.468.284.942.506 1.403.66.924.315 1.8.338 2.486.188.344-.074.64-.185.896-.293a4.73 4.73 0 00.62-.337l.213-.143c.06-.044.108-.082.148-.113l.122-.092.003-.003a.036.036 0 01.05.007.037.037 0 01-.005.05l-.117.1-.144.122c-.059.047-.13.098-.208.157a4.51 4.51 0 01-1.53.733c-.71.19-1.634.207-2.617-.081-.981-.284-2.024-.83-2.975-1.66-.913-.86-1.895-1.794-2.956-2.76-1.063-.96-2.194-1.968-3.455-2.889a14.248 14.248 0 00-2.016-1.242 9.278 9.278 0 00-2.285-.78 13.84 13.84 0 00-2.447-.241c-.82-.006-1.636.187-2.41.477-.387.145-.768.31-1.15.477-.381.166-.761.34-1.168.458-.204.055-.417.1-.637.083a.933.933 0 01-.597-.263 1.6 1.6 0 01-.343-.546 3.72 3.72 0 01-.18-.603c-.17-.817-.2-1.64-.218-2.45-.014-.809.005-1.608.032-2.393.043-1.568.065-3.085.02-4.523a68.592 68.592 0 00-.22-4.047 63.324 63.324 0 00-.387-3.403 48.2 48.2 0 00-.438-2.603c-.172-.883-.27-1.366-.486-1.675-.587-.836-1.449-1.02-2.499-.65C.881.728-.27 3.915.055 14.838.37 25.28 6.109 38.27 17.455 39.4v1.23c-6.355.042-11.381.556-11.381 1.184 0 .656 5.46 1.187 12.194 1.187C25 43 30.46 42.47 30.46 41.813c0-.628-5.025-1.142-11.38-1.183v-1.143c12.419-.008 20.126-10.702 16.593-16.048zm35.66 7.087c1.338 3.436 2.006 4.333 3.677 4.557v.15H63.273v-.15c2.6-.224 4.086-1.046 2.786-4.333l-.743-1.868H51.128l-.817 1.868c-1.374 3.212.111 3.885 2.191 4.333v.15h-6.834v-.15c1.56-.448 2.451-1.158 3.826-4.37l8.134-18.865-.074-1.084.705-.41L62.642 8c0 .224.074.672.854 2.615l7.837 19.91zm-19.945-2.317h13.668l-6.574-16.473-7.094 16.473zm45.128 5.828c.52.336 1.486.598 2.08.672v.15l-6.797.56v-3.25c-1.746 1.382-4.68 3.325-8.097 3.325-2.229 0-5.386-1.158-5.386-6.799v-8.031c0-2.018-.334-2.727-2.005-3.475v-.074h6.945l-.223 2.577v8.928c0 4.184 1.486 5.118 3.12 5.118 2.377 0 4.16-1.27 5.646-2.465v-10.61c0-2.017-.334-2.726-2.006-3.474v-.074h6.946l-.223 2.577v14.345zm15.971-17.109c.743 0 1.337.112 2.043.448l-3.714 6.201h-.149c.855-2.241.149-4.034-1.225-4.034-1.709 0-2.638 2.241-2.935 4.819v7.396c0 2.018.335 2.727 1.449 3.474h-6.351l.185-2.577V18.31c-.52-.336-1.485-.598-2.265-.672v-.15l7.168-.56-.186 2.764v1.196h.483c.854-2.391 2.86-3.96 5.497-3.96zm23.066 15.241c0 2.018.334 2.653 1.448 3.4v.112l-7.094-1.158s.037 0 .037-.038c-1.188.635-2.674 1.009-4.42 1.009-5.423 0-8.951-3.325-8.951-8.517 0-5.454 3.788-10.086 11.663-10.086 2.377 0 4.94.448 7.317 1.382v13.896zM121.29 24.81c0 5.417 2.823 9.488 6.574 9.488 1.226 0 2.155-.448 2.897-1.27.038-.373.075-.784.075-1.344V19.618c-1.152-1.27-2.489-2.017-4.272-2.017-3.491 0-5.274 2.876-5.274 7.21z"/></g><defs><clipPath id="clip0_464_1355"><path fill="#fff" d="M0 0h137v43H0z"/></clipPath></defs></svg>