<svg width="20" height="20" fill="none" xmlns="http://www.w3.org/2000/svg"><path opacity=".6" fill-rule="evenodd" clip-rule="evenodd" d="M14.553 1.978c-.952-.103-2.152-.103-3.682-.103H9.129c-1.53 0-2.73 0-3.682.103-.971.105-1.758.324-2.43.812a4.792 4.792 0 00-1.06 1.06 3.65 3.65 0 00-.349.59c-.301.638-.436 1.379-.501 2.261-.065.877-.065 1.95-.065 3.275v.062c0 1.53 0 2.73.103 3.682.105.97.324 1.758.812 2.43a4.78 4.78 0 001.06 1.06c.672.488 1.459.707 2.43.812.952.103 2.151.103 3.682.103h1.742c1.53 0 2.73 0 3.682-.103.971-.105 1.758-.324 2.43-.812a4.794 4.794 0 001.06-1.06c.488-.672.707-1.46.812-2.43.103-.952.103-2.152.103-3.682v-.062c0-1.334 0-2.414-.066-3.293-.067-.887-.205-1.63-.513-2.27a3.646 3.646 0 00-.336-.563 4.793 4.793 0 00-1.06-1.06c-.672-.488-1.459-.707-2.43-.812zM3.752 3.801c.423-.307.965-.486 1.83-.58.876-.095 2.008-.096 3.585-.096h1.666c1.577 0 2.709 0 3.585.096.865.094 1.407.273 1.83.58.3.219.565.483.784.783L15.45 6.166c-1.402 1.4-2.41 2.407-3.278 3.07-.855.652-1.502.913-2.173.913s-1.318-.261-2.173-.913c-.869-.663-1.876-1.67-3.278-3.07L2.97 4.583c.218-.3.482-.564.783-.783zM17.53 5.853c.05.267.088.571.114.924.063.827.063 1.86.063 3.223 0 1.576 0 2.708-.095 3.585-.094.865-.273 1.407-.581 1.83-.219.3-.483.565-.784.784-.423.307-.965.486-1.83.58-.876.095-2.008.096-3.585.096H9.167c-1.577 0-2.709 0-3.585-.096-.865-.093-1.407-.273-1.83-.58a3.542 3.542 0 01-.784-.784c-.308-.423-.487-.965-.58-1.83-.096-.877-.096-2.009-.096-3.585 0-1.353 0-2.381.061-3.206a8.6 8.6 0 01.116-.941l1.23 1.23c1.36 1.36 2.426 2.426 3.37 3.146.966.737 1.876 1.17 2.931 1.17 1.055 0 1.965-.433 2.93-1.17.944-.72 2.01-1.786 3.37-3.146l1.231-1.23z" fill="#75605F"/></svg>