<svg width="36" height="36" fill="none" xmlns="http://www.w3.org/2000/svg"><path d="M17.25 28.5a.75.75 0 001.5 0h-1.5zm1.5-21a.75.75 0 00-1.5 0h1.5zm3.231 4.99a.75.75 0 101.3-.75l-1.3.75zm.086-1.35l-.649.374.65-.375zm-5.372 6.38l.259-.704-.259.704zm2.61.96l.26-.704-.26.704zm-5.372 6.38l-.65.376.65-.375zm.086-1.35a.75.75 0 00-1.3.75l1.3-.75zm5.973 2.974l-.375-.65.375.65zM16.009 9.516l.375.65-.375-.65zM32.25 18c0 7.87-6.38 14.25-14.25 14.25v1.5c8.698 0 15.75-7.052 15.75-15.75h-1.5zM18 32.25c-7.87 0-14.25-6.38-14.25-14.25h-1.5c0 8.698 7.052 15.75 15.75 15.75v-1.5zM3.75 18c0-7.87 6.38-14.25 14.25-14.25v-1.5C9.302 2.25 2.25 9.302 2.25 18h1.5zM18 3.75c7.87 0 14.25 6.38 14.25 14.25h1.5c0-8.698-7.052-15.75-15.75-15.75v1.5zm5.28 7.99l-.563-.976-1.299.75.563.976 1.3-.75zm-8.698 12.746l-.563-.976-1.3.75.564.976 1.3-.75zm4.464-5.302c2.933 1.079 3.277 5.088.57 6.65l.75 1.3c3.808-2.199 3.324-7.84-.802-9.358l-.518 1.408zM15.634 8.866c-3.808 2.199-3.324 7.84.802 9.358l.518-1.408c-2.933-1.079-3.277-5.088-.57-6.65l-.75-1.3zM18.75 28.5v-1.426h-1.5V28.5h1.5zm0-1.426V18h-1.5v9.074h1.5zm.867-1.24a3.666 3.666 0 01-1.655.49l.076 1.499a5.166 5.166 0 002.329-.69l-.75-1.298zm-1.655.49a3.685 3.685 0 01-3.38-1.838l-1.299.75a5.185 5.185 0 004.755 2.587l-.076-1.498zm-1.526-8.1l1.305.48.518-1.408-1.305-.48-.518 1.408zm1.305.48l1.305.48.518-1.408-1.305-.48-.518 1.408zM18.75 18V8.926h-1.5V18h1.5zm0-9.074V7.5h-1.5v1.426h1.5zm3.967 1.838a5.185 5.185 0 00-4.755-2.587l.076 1.499c1.34-.068 2.665.6 3.38 1.838l1.299-.75zm-4.755-2.587a5.167 5.167 0 00-2.329.69l.75 1.298a3.667 3.667 0 011.655-.49l-.076-1.498z" fill="#75605F"/></svg>