<svg width="19" height="19" fill="none" xmlns="http://www.w3.org/2000/svg"><path opacity=".6" fill-rule="evenodd" clip-rule="evenodd" d="M5.642.698a2.647 2.647 0 00-3.725.14l-.864.864a3.596 3.596 0 00-.967 3.322 17.965 17.965 0 0013.64 13.64 3.596 3.596 0 003.322-.967l.864-.864a2.647 2.647 0 00.14-3.725 4.182 4.182 0 00-.14-.144l-1.414-1.414a3.377 3.377 0 00-3.738-.708 1.934 1.934 0 01-2.14-.405L8.313 8.13a1.934 1.934 0 01-.405-2.14A3.377 3.377 0 007.2 2.252L5.786.838a4.934 4.934 0 00-.144-.14zM3.037 1.76a1.203 1.203 0 011.629 0l.11.109 1.403 1.403c.562.562.723 1.411.405 2.14a3.377 3.377 0 00.708 3.738L9.6 11.458a3.377 3.377 0 003.738.708 1.934 1.934 0 012.14.405l1.404 1.404.108.11c.423.46.423 1.167 0 1.628a4.51 4.51 0 01-.108.11l-.854.853c-.52.52-1.27.738-1.988.579A16.52 16.52 0 011.495 4.71a2.152 2.152 0 01.58-1.988l.852-.853a4.52 4.52 0 01.11-.109z" fill="#75605F"/></svg>