<svg width="36" height="36" fill="none" xmlns="http://www.w3.org/2000/svg"><path d="M16.035 8.975l-.716-.225.716.225zm-3.18 5.335l.45-.6-.45.6zm.751 2.386l.716.226-.716-.226zm3.18 2.387l-.45-.6.45.6zm2.428 0l.45-.6-.45.6zm3.18-2.386l-.716.225.716-.226zm.75-2.387l-.45-.6.45.6zm-3.18-5.335l.716-.225-.715.225zM14.81 26.747l-.65-.375.65.375zm-2.635 4.563l.65.375-.65-.375zm-9.428-5.444l-.65-.375.65.375zm2.634-4.563l.65.375-.65-.375zm3.97 9.765l-.71.243.71-.243zm-.366-1.07l.71-.242-.71.242zm-3.507-2.024l-.145-.736.145.736zm-1.11.218l.145.736-.144-.736zm3.496-.302l.375-.65-.375.65zm-5.946.318l-.616.429.616-.43zm13.653-2.81l-.6-.451-.035.048-.028.052.663.35zm5.203 1.349l.65-.375-.65.375zm2.635 4.563l.65-.375-.65.375zm9.429-5.444l.65-.375-.65.375zm-2.635-4.563l-.65.375.65-.375zm-3.969 9.765l.71.243-.71-.243zm.366-1.07l-.71-.242.71.242zm3.506-2.024l.145-.736-.145.736zm1.11.218l-.145.736.145-.736zm2.45.016l.616.429-.615-.43zm-13.66-2.822h-.75v.185l.087.164.664-.35zm-4.34-.113l.144-.736-.145.736zm4.34.06l-.124-.74.125.74zM28.67 19l-.667-.344.667.344zm-21.947.2l-.563-.496.563.495zm.027-5.7C6.75 7.287 11.787 2.25 18 2.25V.75C10.958.75 5.25 6.458 5.25 13.5h1.5zM18 2.25c6.213 0 11.25 5.037 11.25 11.25h1.5C30.75 6.458 25.042.75 18 .75v1.5zm-3.93 8.95c1.236 0 2.31-.821 2.68-2l-1.43-.45c-.183.58-.696.95-1.25.95v1.5zm-.764 2.51c-1.087-.815-.463-2.51.764-2.51V9.7c-2.776 0-3.817 3.595-1.665 5.21l.9-1.2zm1.016 3.212a2.924 2.924 0 00-1.016-3.212l-.9 1.2c.463.348.668.978.485 1.561l1.43.45zm2.013 1.56c-.512.386-1.093.327-1.528 0a1.384 1.384 0 01-.485-1.56l-1.431-.45a2.883 2.883 0 001.015 3.21c.905.68 2.223.831 3.33 0l-.9-1.2zm3.33 0a2.763 2.763 0 00-3.33 0l.9 1.2a1.263 1.263 0 011.53 0l.9-1.2zm2.013-1.56a1.383 1.383 0 01-.485 1.56c-.435.327-1.016.386-1.528 0l-.9 1.2c1.106.831 2.424.68 3.328 0a2.883 2.883 0 001.016-3.21l-1.43.45zm1.016-3.212a2.924 2.924 0 00-1.016 3.212l1.431-.45a1.424 1.424 0 01.485-1.562l-.9-1.2zm-.764-2.51c1.227 0 1.85 1.695.764 2.51l.9 1.2c2.153-1.615 1.112-5.21-1.664-5.21v1.5zm-2.68-2c.37 1.179 1.444 2 2.68 2V9.7c-.554 0-1.067-.37-1.25-.95l-1.43.45zm1.43-.45c-.838-2.667-4.522-2.667-5.36 0l1.43.45a1.297 1.297 0 012.5 0l1.43-.45zm-6.52 17.622l-2.635 4.563 1.299.75 2.635-4.563-1.3-.75zm-10.765-.13l2.635-4.564-1.3-.75-2.634 4.563 1.3.75zm6.664 4.584l-.366-1.07-1.42.485.367 1.07 1.419-.485zm-4.727-3.588l-1.11.218.29 1.472 1.11-.218-.29-1.472zm4.361 2.518c-.2-.589-.373-1.097-.565-1.489-.2-.41-.462-.78-.89-1.026l-.75 1.299c.07.04.162.118.293.387.14.287.28.689.493 1.314l1.42-.485zM5.622 28.71c.648-.128 1.066-.209 1.385-.23.298-.02.41.02.481.06l.75-1.3c-.428-.246-.879-.288-1.334-.257-.435.03-.962.135-1.572.255l.29 1.472zm-3.526-3.22c-.36.623-.672 1.16-.847 1.595-.168.417-.323 1.013.052 1.55l1.23-.857c.09.128-.023.196.11-.133.125-.312.37-.74.754-1.405l-1.299-.75zm2.127 1.965c-.747.147-1.223.239-1.552.255-.346.017-.233-.066-.14.068l-1.23.858c.38.544.996.595 1.444.572.465-.023 1.07-.144 1.767-.281l-.29-1.472zm7.302 3.48c-.384.665-.632 1.09-.84 1.355-.218.279-.215.147-.06.16l-.128 1.495c.654.056 1.092-.376 1.37-.73.288-.369.598-.909.957-1.53l-1.3-.75zm-2.885.375c.23.672.427 1.257.64 1.67.204.4.556.908 1.217.965l.128-1.494c.163.014.147.153-.01-.155-.151-.293-.31-.751-.556-1.471l-1.42.485zm-2.61-9.633c.632-1.095.947-1.634 1.256-1.985l-1.127-.99c-.432.491-.833 1.194-1.428 2.225l1.299.75zm9.429 5.444c.316-.549.574-.995.774-1.374l-1.326-.7c-.184.347-.426.766-.747 1.324l1.299.75zm4.665 0l2.635 4.563 1.299-.75-2.635-4.563-1.3.75zm13.362-1.63l-2.634-4.564-1.3.75 2.635 4.563 1.3-.75zm-6.543 5.819l.366-1.07-1.42-.485-.366 1.07 1.42.485zm3.017-2.601l1.11.218.29-1.472-1.11-.218-.29 1.472zm-2.651 1.53c.213-.624.352-1.026.493-1.313.13-.269.222-.347.292-.387l-.75-1.3c-.428.248-.69.617-.89 1.027-.192.392-.364.9-.565 1.489l1.42.485zm2.941-3.002c-.61-.12-1.136-.225-1.571-.255-.456-.031-.907.01-1.335.258l.75 1.299c.07-.04.184-.08.482-.06.319.021.736.102 1.384.23l.29-1.472zm1.937-.997c.385.666.63 1.093.755 1.405.132.33.02.26.109.133l1.23.858c.375-.538.22-1.134.052-1.55-.175-.435-.487-.973-.847-1.596l-1.299.75zm-1.117 2.687c.697.137 1.303.258 1.767.281.448.023 1.065-.028 1.444-.572l-1.23-.858c.093-.134.206-.05-.14-.068-.328-.016-.805-.108-1.552-.255l-.289 1.472zm-8.311 2.757c.359.622.668 1.162.957 1.531.278.354.715.786 1.37.73l-.129-1.494c.156-.014.159.118-.06-.161-.207-.265-.455-.69-.84-1.356l-1.298.75zm2.764-.86c-.246.72-.404 1.18-.555 1.472-.158.308-.174.169-.01.155l.127 1.494c.661-.056 1.013-.565 1.218-.964.212-.414.41-1 .64-1.671l-1.42-.485zm-4.1-4.453a43.277 43.277 0 01-.754-1.336l-1.327.7c.201.38.462.831.782 1.386l1.299-.75zm-13.51-7.884A11.2 11.2 0 016.75 13.5h-1.5a12.7 12.7 0 001.32 5.654l1.343-.666zM18 24.75c-.75 0-1.483-.073-2.19-.213l-.29 1.472c.802.158 1.632.241 2.48.241v-1.5zm-2.19-.213a11.269 11.269 0 01-7.897-6.05l-1.344.667a12.769 12.769 0 008.95 6.855l.29-1.472zm.36 1.312l.093-.125-1.198-.902-.094.125 1.198.902zm3.711-1.256c-.61.103-1.24.157-1.881.157v1.5c.725 0 1.437-.06 2.13-.177l-.249-1.48zm.875.793v-.053h-1.5v.053h1.5zM29.25 13.5a11.2 11.2 0 01-1.248 5.155l1.333.688A12.698 12.698 0 0030.75 13.5h-1.5zm-1.248 5.155a11.264 11.264 0 01-8.12 5.938l.248 1.48a12.764 12.764 0 009.205-6.73l-1.333-.688zm2.85 2.273c-.692-1.197-1.122-1.958-1.668-2.474l-1.03 1.09c.347.328.653.843 1.398 2.134l1.3-.75zM7.286 19.693a.927.927 0 01.288-.2l-.666-1.344a2.4 2.4 0 00-.75.554l1.128.99z" fill="#75605F"/></svg>