<svg width="32" height="32" fill="none" xmlns="http://www.w3.org/2000/svg"><rect width="32" height="32" rx="16" fill="#75605F"/><path d="M7.192 15.648c4.652-2.07 7.755-3.435 9.308-4.094 4.432-1.883 5.353-2.21 5.953-2.22.132-.003.428.03.619.19a.691.691 0 01.227.44c.021.127.048.416.027.642-.24 2.577-1.28 8.83-1.809 11.716-.223 1.221-.664 1.63-1.09 1.67-.927.088-1.631-.625-2.529-1.225-1.405-.94-2.198-1.526-3.562-2.443-1.575-1.06-.554-1.643.344-2.596.235-.249 4.319-4.042 4.398-4.386.01-.043.019-.203-.074-.288-.094-.084-.231-.055-.33-.032-.142.032-2.386 1.547-6.733 4.543-.637.447-1.214.664-1.731.653-.57-.013-1.666-.33-2.481-.6-1-.331-1.794-.507-1.725-1.07.036-.294.432-.594 1.188-.9z" fill="#fff"/></svg>