<svg width="32" height="32" fill="none" xmlns="http://www.w3.org/2000/svg"><rect width="32" height="32" rx="16" fill="#75605F"/><path fill-rule="evenodd" clip-rule="evenodd" d="M26.177 11.023c.149-.495 0-.858-.706-.858h-2.334c-.593 0-.866.314-1.015.66 0 0-1.187 2.893-2.868 4.772-.544.544-.791.717-1.088.717-.148 0-.363-.173-.363-.667v-4.624c0-.594-.172-.858-.667-.858H13.47c-.371 0-.594.275-.594.537 0 .562.84.692.927 2.274v3.437c0 .754-.136.89-.433.89-.79 0-2.715-2.906-3.857-6.23-.224-.647-.448-.908-1.045-.908H6.134c-.667 0-.8.314-.8.66 0 .618.79 3.684 3.684 7.74 1.928 2.768 4.645 4.27 7.118 4.27 1.484 0 1.667-.334 1.667-.908v-2.093c0-.667.14-.8.61-.8.346 0 .94.173 2.325 1.508 1.582 1.582 1.843 2.293 2.733 2.293h2.334c.667 0 1-.334.808-.992-.21-.656-.966-1.607-1.969-2.735-.544-.643-1.36-1.335-1.607-1.681-.346-.445-.247-.643 0-1.038 0 0 2.844-4.006 3.14-5.366z" fill="#fff"/></svg>