<svg width="11" height="9" viewBox="0 0 11 9" fill="none" xmlns="http://www.w3.org/2000/svg">
<path d="M8.32997 1.04207C8.1461 0.859828 7.84931 0.861153 7.66707 1.04503C7.48483 1.2289 7.48615 1.52569 7.67003 1.70793L8.77188 2.8C9.21906 3.24321 9.52582 3.54824 9.73338 3.80669C9.80083 3.89068 9.85346 3.96463 9.89433 4.03125L0.5 4.03125C0.241116 4.03125 0.03125 4.24112 0.03125 4.5C0.03125 4.75888 0.241117 4.96875 0.5 4.96875L9.89433 4.96875C9.85346 5.03537 9.80083 5.10932 9.73338 5.19331C9.52582 5.45176 9.21906 5.75679 8.77188 6.2L7.67003 7.29207C7.48615 7.47431 7.48483 7.7711 7.66707 7.95497C7.84931 8.13885 8.1461 8.14017 8.32997 7.95793L9.45169 6.84618C9.87417 6.42747 10.2195 6.08526 10.4643 5.78034C10.719 5.46326 10.9033 5.14142 10.9526 4.7551C10.9634 4.67041 10.9688 4.5852 10.9688 4.5C10.9688 4.4148 10.9634 4.32959 10.9526 4.2449C10.9033 3.85858 10.719 3.53674 10.4643 3.21966C10.2195 2.91474 9.87416 2.57252 9.45168 2.1538L8.32997 1.04207Z" fill="#333333"/>
</svg>
