<svg width="42" height="42" viewBox="0 0 42 42" fill="none" xmlns="http://www.w3.org/2000/svg">
<path d="M14.3384 20.5002C14.0623 20.5002 13.8384 20.724 13.8384 21.0002C13.8384 21.2763 14.0623 21.5002 14.3384 21.5002V20.5002ZM24.6904 16.4784C24.4943 16.284 24.1777 16.2854 23.9833 16.4815C23.7889 16.6777 23.7903 16.9942 23.9865 17.1886L24.6904 16.4784ZM25.8076 18.2896L26.1595 17.9345L25.8076 18.2896ZM25.8076 23.7107L25.4556 23.3556L25.8076 23.7107ZM23.9865 24.8117C23.7903 25.0061 23.7889 25.3227 23.9833 25.5188C24.1777 25.7149 24.4943 25.7163 24.6904 25.522L23.9865 24.8117ZM27.6552 20.7391L28.1512 20.6758L27.6552 20.7391ZM27.6552 21.2613L28.1512 21.3245L27.6552 21.2613ZM21 40.5C10.2304 40.5 1.5 31.7696 1.5 21H0.5C0.5 32.3218 9.67816 41.5 21 41.5V40.5ZM1.5 21C1.5 10.2304 10.2304 1.5 21 1.5V0.5C9.67816 0.5 0.500001 9.67816 0.5 21H1.5ZM21 1.5C31.7696 1.5 40.5 10.2304 40.5 21H41.5C41.5 9.67816 32.3218 0.500001 21 0.5V1.5ZM40.5 21C40.5 31.7696 31.7696 40.5 21 40.5V41.5C32.3218 41.5 41.5 32.3218 41.5 21H40.5ZM14.3384 21.5002L27.6718 21.5002V20.5002L14.3384 20.5002V21.5002ZM23.9865 17.1886L25.4556 18.6447L26.1595 17.9345L24.6904 16.4784L23.9865 17.1886ZM25.4556 23.3556L23.9865 24.8117L24.6904 25.522L26.1595 24.0659L25.4556 23.3556ZM25.4556 18.6447C26.0497 19.2336 26.4648 19.646 26.7471 19.9975C27.023 20.341 27.1305 20.5775 27.1592 20.8023L28.1512 20.6758C28.0896 20.193 27.8592 19.7853 27.5267 19.3713C27.2006 18.9652 26.737 18.5068 26.1595 17.9345L25.4556 18.6447ZM26.1595 24.0659C26.737 23.4935 27.2006 23.0351 27.5267 22.629C27.8592 22.215 28.0896 21.8073 28.1512 21.3245L27.1592 21.1981C27.1305 21.4229 27.023 21.6593 26.7471 22.0028C26.4648 22.3543 26.0497 22.7667 25.4556 23.3556L26.1595 24.0659ZM27.1592 20.8023C27.1676 20.868 27.1718 20.9341 27.1718 21.0002H28.1718C28.1718 20.8918 28.1649 20.7835 28.1512 20.6758L27.1592 20.8023ZM27.1718 21.0002C27.1718 21.0663 27.1676 21.1323 27.1592 21.1981L28.1512 21.3245C28.1649 21.2168 28.1718 21.1085 28.1718 21.0002H27.1718Z" fill="#75605F"/>
</svg>
