<svg width="36" height="36" viewBox="0 0 36 36" fill="none" xmlns="http://www.w3.org/2000/svg">
<path d="M24 13.4999L18.8046 19.7344C17.7365 21.016 17.2025 21.6569 16.5 21.6569C15.7974 21.6569 15.2634 21.016 14.1953 19.7343L12 17.0999M8.39218 7.52842C10.7138 8.11036 13.0784 6.74517 13.7352 4.44361C14.9597 0.153075 21.0402 0.153075 22.2647 4.44361C22.9215 6.74517 25.2861 8.11036 27.6077 7.52842C31.9357 6.44357 34.9759 11.7095 31.8724 14.9151C30.2077 16.6348 30.2077 19.3651 31.8724 21.0848C34.9759 24.2904 31.9357 29.5563 27.6077 28.4715C25.2861 27.8895 22.9215 29.2547 22.2647 31.5563C21.0402 35.8468 14.9597 35.8468 13.7352 31.5563C13.0784 29.2547 10.7138 27.8895 8.39218 28.4715C4.06424 29.5563 1.02398 24.2904 4.12746 21.0848C5.79225 19.3651 5.79225 16.6348 4.12746 14.9151C1.02398 11.7095 4.06424 6.44357 8.39218 7.52842Z" stroke="#75605F" stroke-width="1.5" stroke-linecap="round"/>
</svg>
