<svg width="36" height="36" viewBox="0 0 36 36" fill="none" xmlns="http://www.w3.org/2000/svg">
<path d="M16.5 18C16.5 19.6569 15.1569 21 13.5 21C11.8431 21 10.5 19.6569 10.5 18C10.5 16.3431 11.8431 15 13.5 15C15.1569 15 16.5 16.3431 16.5 18ZM16.5 18L25.323 18C25.4315 18 25.5307 18.0613 25.5792 18.1584V18.1584C26.0015 19.0029 26.0015 19.9971 25.5792 20.8416L25.5 21M21 21L21.0792 20.8416C21.5015 19.9971 21.5015 19.0029 21.0792 18.1584L21 18M33 18C33 26.2843 26.2843 33 18 33C9.71573 33 3 26.2843 3 18C3 9.71573 9.71573 3 18 3C26.2843 3 33 9.71573 33 18Z" stroke="#75605F" stroke-width="1.5" stroke-linecap="round"/>
</svg>
