<svg width="20" height="20" viewBox="0 0 20 20" fill="none" xmlns="http://www.w3.org/2000/svg">
<g opacity="0.6">
<path fill-rule="evenodd" clip-rule="evenodd" d="M10 5.2085C8.27415 5.2085 6.87504 6.60761 6.87504 8.3335C6.87504 10.0594 8.27415 11.4585 10 11.4585C11.7259 11.4585 13.125 10.0594 13.125 8.3335C13.125 6.60761 11.7259 5.2085 10 5.2085ZM8.12504 8.3335C8.12504 7.29796 8.96451 6.4585 10 6.4585C11.0356 6.4585 11.875 7.29796 11.875 8.3335C11.875 9.36903 11.0356 10.2085 10 10.2085C8.96451 10.2085 8.12504 9.36903 8.12504 8.3335Z" fill="#75605F"/>
<path fill-rule="evenodd" clip-rule="evenodd" d="M10 0.208496C5.93059 0.208496 2.70837 3.74414 2.70837 8.00741C2.70837 9.37468 3.38763 10.9847 4.24224 12.4956C5.11069 14.031 6.21911 15.5637 7.1909 16.8029L7.22332 16.8442C7.69765 17.4492 8.10174 17.9645 8.49358 18.3205C8.92107 18.7088 9.39249 18.9631 10 18.9631C10.6076 18.9631 11.079 18.7088 11.5065 18.3205C11.8983 17.9645 12.3024 17.4492 12.7768 16.8442L12.8092 16.8029C13.781 15.5637 14.8894 14.031 15.7578 12.4956C16.6125 10.9847 17.2917 9.37468 17.2917 8.00741C17.2917 3.74414 14.0695 0.208496 10 0.208496ZM3.95837 8.00741C3.95837 4.34659 6.70569 1.4585 10 1.4585C13.2944 1.4585 16.0417 4.34659 16.0417 8.00741C16.0417 9.02949 15.5087 10.3971 14.6698 11.8802C13.8448 13.3388 12.7786 14.8163 11.8256 16.0316C11.3098 16.6893 10.9701 17.119 10.666 17.3952C10.3887 17.6472 10.2035 17.7131 10 17.7131C9.79656 17.7131 9.61141 17.6472 9.33406 17.3952C9.02994 17.119 8.69033 16.6893 8.17453 16.0316C7.22153 14.8163 6.15528 13.3388 5.33025 11.8802C4.49139 10.3971 3.95837 9.02949 3.95837 8.00741Z" fill="#75605F"/>
</g>
</svg>
