<svg width="137" height="43" viewBox="0 0 137 43" fill="none" xmlns="http://www.w3.org/2000/svg">
<g clip-path="url(#clip0_464_1355)">
<path d="M35.6735 23.4388C32.7533 19.0177 29.1705 21.4401 24.4136 22.5909C19.6567 23.7408 20.8005 16.2317 25.0758 9.57005C29.3506 2.90841 25.1664 0.485961 21.9447 2.66578C19.8102 4.10996 9.08675 8.97724 7.19185 4.30097C6.69268 3.06888 6.20548 1.74989 5.42271 0.962622C5.25632 0.794844 5.18189 0.901963 5.23835 1.08566C5.35385 1.46208 5.44538 1.7529 5.61177 2.47004C5.78715 3.18503 5.97621 4.05877 6.16442 5.06758C6.35989 6.07554 6.5327 7.22073 6.68198 8.47649C6.82271 9.73224 6.95702 11.0977 7.01434 12.5462C7.05712 13.2702 7.07123 14.0149 7.08962 14.7759C7.10417 15.1566 7.09647 15.5417 7.09305 15.9301C7.08962 16.3186 7.08577 16.7109 7.08235 17.1067C7.06653 17.8884 7.05968 18.6731 7.08492 19.4655C7.09689 19.8604 7.11914 20.2553 7.15207 20.6451C7.18458 21.0336 7.2295 21.4216 7.30991 21.7765C7.34969 21.9529 7.39803 22.122 7.45663 22.2648C7.5148 22.4063 7.58623 22.5169 7.6397 22.5664C7.69616 22.6116 7.71113 22.6236 7.80181 22.6309C7.88779 22.6395 8.03622 22.615 8.19448 22.5694C8.51957 22.4739 8.88999 22.3065 9.26812 22.1383C9.64881 21.9688 10.0428 21.7907 10.4568 21.6402C11.2815 21.3356 12.1904 21.1209 13.1195 21.1321C13.9827 21.1523 14.8476 21.2259 15.7001 21.401C16.5551 21.5713 17.3837 21.8772 18.1421 22.2618C18.8996 22.6503 19.5908 23.1097 20.2346 23.5903C21.5238 24.5522 22.6351 25.6001 23.6839 26.59C24.7297 27.5795 25.6908 28.5543 26.5669 29.4337C26.9869 29.8329 27.4668 30.1749 27.9305 30.4597C28.3985 30.7445 28.8715 30.9665 29.3331 31.1196C30.2574 31.4349 31.1326 31.4582 31.8187 31.308C32.163 31.234 32.4594 31.123 32.7148 31.0146C32.9659 30.8998 33.1742 30.7836 33.3355 30.6778C33.4159 30.6236 33.4869 30.5763 33.548 30.535C33.6071 30.4907 33.6563 30.4528 33.696 30.4223C33.7765 30.3612 33.8175 30.3298 33.8175 30.3298L33.8209 30.3267C33.8368 30.3147 33.8594 30.3177 33.8714 30.3341C33.8825 30.3495 33.8804 30.3715 33.8659 30.3835C33.8659 30.3835 33.8257 30.4175 33.7487 30.4838C33.7102 30.5169 33.6623 30.5578 33.6054 30.6064C33.5463 30.6533 33.4753 30.7045 33.3971 30.7634C33.081 30.9931 32.5809 31.308 31.8666 31.4965C31.157 31.6853 30.233 31.7025 29.2497 31.4147C28.2689 31.1308 27.2256 30.5849 26.2751 29.7542C25.3615 28.895 24.3798 27.9607 23.319 26.9953C22.2557 26.0346 21.1251 25.0271 19.8641 24.1065C19.2328 23.6496 18.5651 23.2194 17.8482 22.8641C17.13 22.5126 16.3626 22.2416 15.5632 22.0846C14.7637 21.925 13.9412 21.8583 13.1161 21.8428C12.2952 21.8372 11.4804 22.0303 10.7066 22.3203C10.3187 22.4649 9.93753 22.6296 9.55684 22.7974C9.17487 22.9635 8.7946 23.1373 8.38782 23.2551C8.18422 23.3102 7.9712 23.3554 7.75134 23.3377C7.53191 23.3274 7.31119 23.2297 7.15379 23.0749C6.99552 22.9191 6.89115 22.7256 6.81074 22.5294C6.73075 22.3328 6.67642 22.1289 6.63151 21.9258C6.46127 21.1089 6.43176 20.2855 6.41294 19.4767C6.39882 18.6671 6.41764 17.8677 6.44459 17.0826C6.48779 15.5145 6.51046 13.9977 6.46426 12.5599C6.43603 11.1218 6.34321 9.7645 6.24526 8.51348C6.13105 7.26375 6.00701 6.11942 5.85815 5.11017C5.71443 4.10093 5.56344 3.22461 5.42015 2.50661C5.24819 1.62384 5.15024 1.14072 4.93423 0.832271C4.34694 -0.00446702 3.48547 -0.187732 2.43536 0.181379C0.880945 0.728593 -0.271393 3.91637 0.0558298 14.8391C0.368509 25.2805 6.10838 38.2687 17.4538 39.3992V40.6296C11.0989 40.6709 6.07288 41.185 6.07288 41.8135C6.07288 42.4691 11.5326 43 18.2665 43C25.0009 43 30.4602 42.4696 30.4602 41.8135C30.4602 41.185 25.4351 40.6709 19.0797 40.6296V39.487C31.4987 39.4792 39.2058 28.7849 35.6735 23.4388Z" fill="#333333"/>
<path d="M71.3334 30.5256C72.6705 33.9623 73.3391 34.8589 75.0105 35.083V35.2324H63.2735V35.083C65.8735 34.8589 67.3592 34.037 66.0592 30.7497L65.3163 28.8819H51.1279L50.3108 30.7497C48.9365 33.9623 50.4222 34.6347 52.5022 35.083V35.2324H45.668V35.083C47.228 34.6347 48.1194 33.925 49.4936 30.7124L57.6278 11.8477L57.5536 10.7643L58.2593 10.3534L62.6421 8C62.6421 8.22414 62.7164 8.67241 63.4964 10.6149L71.3334 30.5256ZM51.3879 28.2095H65.0563L58.4821 11.7356L51.3879 28.2095ZM96.516 34.037C97.036 34.3732 98.0017 34.6347 98.596 34.7094V34.8589L91.7989 35.4192V32.1692C90.0532 33.5514 87.119 35.4939 83.7019 35.4939C81.4733 35.4939 78.3162 34.3359 78.3162 28.6951V20.6636C78.3162 18.6464 77.9819 17.9367 76.3105 17.1895V17.1148H83.2561L83.0333 19.6924V28.6204C83.0333 32.8043 84.519 33.7382 86.1533 33.7382C88.5304 33.7382 90.3132 32.4681 91.7989 31.2727V20.6636C91.7989 18.6464 91.4646 17.9367 89.7932 17.1895V17.1148H96.7389L96.516 19.6924V34.037ZM112.487 16.928C113.23 16.928 113.824 17.0401 114.53 17.3763L110.816 23.5774H110.667C111.522 21.336 110.816 19.543 109.442 19.543C107.733 19.543 106.804 21.7843 106.507 24.3619V31.7583C106.507 33.7755 106.842 34.4853 107.956 35.2324H101.605L101.79 32.6549V18.3102C101.27 17.974 100.305 17.7125 99.5246 17.6378V17.4884L106.693 16.928L106.507 19.6924V20.8878H106.99C107.844 18.497 109.85 16.928 112.487 16.928ZM135.553 32.1692C135.553 34.1865 135.887 34.8215 137.001 35.5686V35.6807L129.907 34.5227C129.907 34.5227 129.944 34.5227 129.944 34.4853C128.756 35.1203 127.27 35.4939 125.524 35.4939C120.101 35.4939 116.573 32.1692 116.573 26.9768C116.573 21.5228 120.361 16.8907 128.236 16.8907C130.613 16.8907 133.176 17.339 135.553 18.2729V32.1692ZM121.29 24.8101C121.29 30.2267 124.113 34.2985 127.864 34.2985C129.09 34.2985 130.019 33.8502 130.761 33.0284C130.799 32.6549 130.836 32.2439 130.836 31.6836V19.6177C129.684 18.3476 128.347 17.6005 126.564 17.6005C123.073 17.6005 121.29 20.4769 121.29 24.8101Z" fill="#333333"/>
</g>
<defs>
<clipPath id="clip0_464_1355">
<rect width="137" height="43" fill="white"/>
</clipPath>
</defs>
</svg>
