<svg width="20" height="20" viewBox="0 0 20 20" fill="none" xmlns="http://www.w3.org/2000/svg">
<path opacity="0.6" fill-rule="evenodd" clip-rule="evenodd" d="M14.5529 1.97811C13.6011 1.87499 12.4014 1.87499 10.871 1.875H9.12892C7.59847 1.87499 6.3988 1.87499 5.44702 1.97811C4.47574 2.08334 3.68876 2.30194 3.01682 2.79013C2.61003 3.08568 2.2523 3.44341 1.95675 3.8502C1.82202 4.03564 1.70664 4.23151 1.60819 4.43997C1.3067 5.07837 1.17222 5.81864 1.10668 6.7014C1.04162 7.57769 1.04162 8.65186 1.04163 9.9763V10.0377C1.04162 11.5682 1.04161 12.7678 1.14473 13.7196C1.24996 14.6909 1.46856 15.4779 1.95675 16.1498C2.2523 16.5566 2.61003 16.9143 3.01682 17.2099C3.68876 17.6981 4.47574 17.9167 5.44702 18.0219C6.39879 18.125 7.59843 18.125 9.12884 18.125H10.871C12.4014 18.125 13.6011 18.125 14.5529 18.0219C15.5242 17.9167 16.3112 17.6981 16.9831 17.2099C17.3899 16.9143 17.7476 16.5566 18.0432 16.1498C18.5314 15.4779 18.75 14.6909 18.8552 13.7196C18.9583 12.7678 18.9583 11.5682 18.9583 10.0378V9.97575C18.9583 8.64227 18.9583 7.56238 18.8918 6.68254C18.8248 5.79588 18.6873 5.05316 18.3788 4.41288C18.2832 4.21445 18.172 4.02753 18.0432 3.8502C17.7476 3.44341 17.3899 3.08568 16.9831 2.79013C16.3112 2.30194 15.5242 2.08334 14.5529 1.97811ZM3.75155 3.8014C4.17489 3.49383 4.71674 3.31454 5.58166 3.22083C6.45829 3.12586 7.59032 3.125 9.16663 3.125H10.8333C12.4096 3.125 13.5416 3.12586 14.4183 3.22083C15.2832 3.31454 15.825 3.49383 16.2484 3.8014C16.5489 4.01974 16.8132 4.28401 17.0316 4.58449L15.4506 6.1655C14.0492 7.56689 13.0417 8.57253 12.1727 9.23556C11.3181 9.88758 10.6713 10.1491 9.99996 10.1491C9.32861 10.1491 8.68184 9.88758 7.82725 9.23556C6.95824 8.57252 5.95073 7.56688 4.54935 6.1655L2.96834 4.5845C3.18673 4.28401 3.45103 4.01974 3.75155 3.8014ZM17.531 5.85281C17.5814 6.11967 17.6187 6.42409 17.6454 6.7767C17.7079 7.60411 17.7083 8.63735 17.7083 10C17.7083 11.5763 17.7074 12.7083 17.6125 13.585C17.5187 14.4499 17.3395 14.9917 17.0319 15.4151C16.8134 15.7157 16.549 15.9802 16.2484 16.1986C15.825 16.5062 15.2832 16.6855 14.4183 16.7792C13.5416 16.8741 12.4096 16.875 10.8333 16.875H9.16663C7.59032 16.875 6.45829 16.8741 5.58166 16.7792C4.71674 16.6855 4.17489 16.5062 3.75155 16.1986C3.45089 15.9802 3.18647 15.7157 2.96802 15.4151C2.66045 14.9917 2.48117 14.4499 2.38746 13.585C2.29248 12.7083 2.29163 11.5763 2.29163 10C2.29163 8.64704 2.29202 7.6187 2.35325 6.79395C2.37997 6.43404 2.41772 6.12404 2.46889 5.85281L3.69927 7.08319C5.0595 8.44344 6.12548 9.50943 7.06903 10.2293C8.0348 10.9662 8.94542 11.3991 9.99996 11.3991C11.0545 11.3991 11.9651 10.9662 12.9309 10.2293C13.8744 9.50943 14.9404 8.44345 16.3006 7.08321L17.531 5.85281Z" fill="#75605F"/>
</svg>
