<svg width="36" height="36" viewBox="0 0 36 36" fill="none" xmlns="http://www.w3.org/2000/svg">
<path d="M17.25 28.5C17.25 28.9142 17.5858 29.25 18 29.25C18.4142 29.25 18.75 28.9142 18.75 28.5H17.25ZM18.75 7.5C18.75 7.08579 18.4142 6.75 18 6.75C17.5858 6.75 17.25 7.08579 17.25 7.5H18.75ZM21.9814 12.4901C22.1885 12.8488 22.6472 12.9718 23.0059 12.7646C23.3646 12.5575 23.4875 12.0988 23.2804 11.7401L21.9814 12.4901ZM22.0675 11.1394L21.418 11.5144V11.5144L22.0675 11.1394ZM16.6951 17.52L16.954 16.8161L16.954 16.8161L16.6951 17.52ZM19.3052 18.48L19.5641 17.7761L19.5641 17.7761L19.3052 18.48ZM13.9328 24.8606L13.2833 25.2356L13.9328 24.8606ZM14.019 23.5099C13.8119 23.1512 13.3532 23.0283 12.9945 23.2354C12.6357 23.4425 12.5128 23.9012 12.7199 24.2599L14.019 23.5099ZM19.9918 26.4841L19.6168 25.8346L19.9918 26.4841ZM16.0085 9.51587L16.3835 10.1654H16.3835L16.0085 9.51587ZM32.25 18C32.25 25.8701 25.8701 32.25 18 32.25V33.75C26.6985 33.75 33.75 26.6985 33.75 18H32.25ZM18 32.25C10.1299 32.25 3.75 25.8701 3.75 18H2.25C2.25 26.6985 9.30152 33.75 18 33.75V32.25ZM3.75 18C3.75 10.1299 10.1299 3.75 18 3.75V2.25C9.30152 2.25 2.25 9.30152 2.25 18H3.75ZM18 3.75C25.8701 3.75 32.25 10.1299 32.25 18H33.75C33.75 9.30152 26.6985 2.25 18 2.25V3.75ZM23.2804 11.7401L22.717 10.7644L21.418 11.5144L21.9814 12.4901L23.2804 11.7401ZM14.5823 24.4856L14.019 23.5099L12.7199 24.2599L13.2833 25.2356L14.5823 24.4856ZM19.0463 19.1839C21.979 20.2626 22.3229 24.2723 19.6168 25.8346L20.3668 27.1337C24.1743 24.9354 23.6904 19.2938 19.5641 17.7761L19.0463 19.1839ZM15.6335 8.86635C11.8261 11.0646 12.31 16.7062 16.4362 18.2239L16.954 16.8161C14.0214 15.7374 13.6774 11.7277 16.3835 10.1654L15.6335 8.86635ZM18.75 28.5V27.0736H17.25V28.5H18.75ZM18.75 27.0736V18H17.25V27.0736H18.75ZM19.6168 25.8346C19.0922 26.1375 18.5262 26.2962 17.9624 26.3245L18.0376 27.8226C18.8334 27.7827 19.6315 27.5582 20.3668 27.1337L19.6168 25.8346ZM17.9624 26.3245C16.623 26.3917 15.2973 25.724 14.5823 24.4856L13.2833 25.2356C14.2906 26.9803 16.158 27.9169 18.0376 27.8226L17.9624 26.3245ZM16.4362 18.2239L17.7411 18.7039L18.2589 17.2961L16.954 16.8161L16.4362 18.2239ZM17.7411 18.7039L19.0464 19.1839L19.5641 17.7761L18.2589 17.2961L17.7411 18.7039ZM18.75 18L18.75 8.92646H17.25L17.25 18H18.75ZM18.75 8.92646V7.5H17.25V8.92646H18.75ZM22.717 10.7644C21.7097 9.01961 19.842 8.08295 17.9624 8.17741L18.0376 9.67552C19.3772 9.6082 20.703 10.2759 21.418 11.5144L22.717 10.7644ZM17.9624 8.17741C17.1667 8.21739 16.3687 8.44189 15.6335 8.86635L16.3835 10.1654C16.908 9.86257 17.474 9.70384 18.0376 9.67552L17.9624 8.17741Z" fill="#75605F"/>
</svg>
