<svg width="19" height="19" viewBox="0 0 19 19" fill="none" xmlns="http://www.w3.org/2000/svg">
<path opacity="0.6" fill-rule="evenodd" clip-rule="evenodd" d="M5.64243 0.697912C4.62972 -0.232637 3.07309 -0.232637 2.06038 0.697912C2.01891 0.736021 1.97463 0.780307 1.91714 0.837813L1.05324 1.70171C0.183929 2.57103 -0.181 3.82421 0.0856922 5.02433C1.59882 11.8334 6.91658 17.1512 13.7257 18.6643C14.9258 18.931 16.179 18.5661 17.0483 17.6968L17.9121 16.8329C17.9697 16.7754 18.014 16.7311 18.0521 16.6896C18.9826 15.6769 18.9826 14.1203 18.0521 13.1076C18.014 13.0661 17.9697 13.0218 17.9121 12.9642L16.4978 11.55C15.5159 10.5681 14.0331 10.2872 12.7601 10.8421C12.0313 11.1598 11.1824 10.999 10.6202 10.4369L8.31314 8.12976C7.75099 7.56762 7.59022 6.71868 7.90789 5.98991C8.46277 4.71695 8.18194 3.23408 7.20002 2.25216L5.78569 0.837828C5.72819 0.780315 5.68391 0.736025 5.64243 0.697912ZM3.0373 1.76109C3.49763 1.33811 4.20518 1.33811 4.66551 1.76109C4.6814 1.77569 4.70222 1.79629 4.77544 1.86951L6.17906 3.27312C6.7412 3.83527 6.90198 4.6842 6.58431 5.41297C6.02943 6.68594 6.31026 8.1688 7.29218 9.15072L9.59928 11.4578C10.5812 12.4397 12.0641 12.7206 13.337 12.1657C14.0658 11.848 14.9147 12.0088 15.4769 12.5709L16.8805 13.9746C16.9537 14.0478 16.9743 14.0686 16.9889 14.0845C17.4119 14.5448 17.4119 15.2524 16.9889 15.7127C16.9743 15.7286 16.9537 15.7494 16.8805 15.8226L16.0273 16.6758C15.5071 17.196 14.7571 17.4144 14.0389 17.2548C7.77705 15.8633 2.88669 10.973 1.49517 4.71111C1.33556 3.9929 1.55396 3.24292 2.0742 2.72267L2.92737 1.86951C3.00059 1.79629 3.02141 1.77569 3.0373 1.76109Z" fill="#75605F"/>
</svg>
