<svg width="36" height="36" viewBox="0 0 36 36" fill="none" xmlns="http://www.w3.org/2000/svg">
<path d="M16.035 8.97474L15.3195 8.7497L16.035 8.97474ZM12.8556 14.3104L13.3058 13.7105L12.8556 14.3104ZM13.6062 16.6965L14.3216 16.9216L13.6062 16.6965ZM16.7855 19.0827L16.3353 18.4829L16.7855 19.0827ZM19.2144 19.0827L19.6646 18.4829L19.2144 19.0827ZM22.3938 16.6965L21.6783 16.9216L22.3938 16.6965ZM23.1443 14.3104L22.6941 13.7105L23.1443 14.3104ZM19.9649 8.97474L20.6804 8.7497L19.9649 8.97474ZM14.8093 26.7465L14.1598 26.3715V26.3715L14.8093 26.7465ZM12.1744 31.3101L12.824 31.6851L12.1744 31.3101ZM2.74559 25.8664L2.09607 25.4914L2.74559 25.8664ZM5.38043 21.3027L6.02994 21.6777L5.38043 21.3027ZM9.34934 31.0682L8.63966 31.3108L9.34934 31.0682ZM8.98358 29.9982L9.69326 29.7556V29.7556L8.98358 29.9982ZM5.47717 27.9738L5.33243 27.2379H5.33243L5.47717 27.9738ZM4.36765 28.192L4.5124 28.9279H4.5124L4.36765 28.192ZM7.86303 27.8902L8.23803 27.2407H8.23803L7.86303 27.8902ZM1.91652 28.2078L1.30136 28.6369L1.91652 28.2078ZM15.5701 25.3979L14.9709 24.9468L14.9349 24.9946L14.9069 25.0475L15.5701 25.3979ZM20.7732 26.7465L21.4227 26.3715V26.3715L20.7732 26.7465ZM23.408 31.3101L24.0575 30.9351L23.408 31.3101ZM32.8369 25.8664L33.4864 25.4914L32.8369 25.8664ZM30.202 21.3027L29.5525 21.6777V21.6777L30.202 21.3027ZM26.2331 31.0682L26.9428 31.3108L26.2331 31.0682ZM26.5989 29.9982L25.8892 29.7556V29.7556L26.5989 29.9982ZM30.1053 27.9738L30.25 27.2379L30.1053 27.9738ZM31.2148 28.192L31.0701 28.9279L31.2148 28.192ZM33.6659 28.2078L34.2811 28.6369V28.6369L33.6659 28.2078ZM20.0059 25.3855H19.2559V25.5711L19.3423 25.7352L20.0059 25.3855ZM15.6642 25.2728L15.8094 24.537L15.6642 25.2728ZM20.0059 25.3331L19.8814 24.5935L20.0059 25.3331ZM28.6688 18.9988L28.0024 18.6547L28.6688 18.9988ZM6.72216 19.1981L6.15855 18.7033L6.72216 19.1981ZM6.74996 13.5C6.74996 7.2868 11.7868 2.25 18 2.25V0.75C10.9583 0.75 5.24996 6.45837 5.24996 13.5H6.74996ZM18 2.25C24.2132 2.25 29.25 7.2868 29.25 13.5H30.75C30.75 6.45837 25.0416 0.75 18 0.75V2.25ZM14.07 11.1995C15.3059 11.1995 16.3796 10.3787 16.7504 9.19977L15.3195 8.7497C15.1372 9.3295 14.6243 9.69947 14.07 9.69947V11.1995ZM13.3058 13.7105C12.2194 12.8952 12.8433 11.1995 14.07 11.1995V9.69947C11.2938 9.69947 10.2533 13.2951 12.4054 14.9102L13.3058 13.7105ZM14.3216 16.9216C14.6913 15.7463 14.2905 14.4496 13.3058 13.7105L12.4054 14.9102C12.869 15.2581 13.0742 15.8881 12.8907 16.4715L14.3216 16.9216ZM16.3353 18.4829C15.8229 18.8675 15.2416 18.8091 14.8069 18.4829C14.3687 18.154 14.1161 17.575 14.3216 16.9216L12.8907 16.4715C12.4777 17.7844 13.0052 19.0061 13.9065 19.6826C14.8113 20.3616 16.129 20.5132 17.2357 19.6826L16.3353 18.4829ZM19.6646 18.4829C18.6737 17.7392 17.3262 17.7392 16.3353 18.4829L17.2357 19.6826C17.6931 19.3393 18.3068 19.3393 18.7642 19.6826L19.6646 18.4829ZM21.6783 16.9216C21.8839 17.575 21.6312 18.154 21.193 18.4829C20.7583 18.8091 20.177 18.8675 19.6646 18.4829L18.7642 19.6826C19.871 20.5132 21.1886 20.3616 22.0934 19.6826C22.9947 19.0061 23.5222 17.7844 23.1092 16.4715L21.6783 16.9216ZM22.6941 13.7105C21.7094 14.4496 21.3087 15.7463 21.6783 16.9216L23.1092 16.4715C22.9257 15.8881 23.131 15.2581 23.5945 14.9102L22.6941 13.7105ZM21.9299 11.1995C23.1566 11.1995 23.7805 12.8952 22.6941 13.7105L23.5945 14.9102C25.7466 13.2951 24.7061 9.69947 21.9299 9.69947V11.1995ZM19.2495 9.19977C19.6203 10.3787 20.694 11.1995 21.9299 11.1995V9.69947C21.3756 9.69947 20.8628 9.3295 20.6804 8.7497L19.2495 9.19977ZM20.6804 8.7497C19.8417 6.08343 16.1582 6.08343 15.3195 8.7497L16.7504 9.19977C17.1488 7.93341 18.8512 7.93341 19.2495 9.19977L20.6804 8.7497ZM14.1598 26.3715L11.5249 30.9351L12.824 31.6851L15.4588 27.1215L14.1598 26.3715ZM3.39511 26.2414L6.02994 21.6777L4.73091 20.9277L2.09607 25.4914L3.39511 26.2414ZM10.059 30.8256L9.69326 29.7556L8.2739 30.2408L8.63966 31.3108L10.059 30.8256ZM5.33243 27.2379L4.22291 27.4561L4.5124 28.9279L5.62191 28.7097L5.33243 27.2379ZM9.69326 29.7556C9.49217 29.1674 9.31992 28.6592 9.12831 28.2675C8.92759 27.8571 8.66604 27.4878 8.23803 27.2407L7.48803 28.5397C7.55831 28.5803 7.6496 28.6582 7.78088 28.9266C7.92126 29.2136 8.06015 29.6155 8.2739 30.2408L9.69326 29.7556ZM5.62191 28.7097C6.27031 28.5822 6.68787 28.5015 7.0066 28.4796C7.30464 28.4591 7.41776 28.4992 7.48803 28.5397L8.23803 27.2407C7.81003 26.9936 7.35941 26.9517 6.90369 26.9831C6.46865 27.013 5.94242 27.1179 5.33243 27.2379L5.62191 28.7097ZM2.09607 25.4914C1.73687 26.1136 1.42403 26.6517 1.24921 27.0863C1.08145 27.5034 0.926034 28.0988 1.30136 28.6369L2.53167 27.7788C2.621 27.9069 2.50843 27.9753 2.64085 27.6461C2.76623 27.3344 3.01092 26.9068 3.39511 26.2414L2.09607 25.4914ZM4.22291 27.4561C3.47602 27.603 2.99967 27.6948 2.67081 27.7111C2.32546 27.7283 2.4382 27.6448 2.53167 27.7788L1.30136 28.6369C1.68084 29.181 2.29744 29.2315 2.7453 29.2093C3.20966 29.1862 3.81587 29.0649 4.5124 28.9279L4.22291 27.4561ZM11.5249 30.9351C11.1407 31.6006 10.8928 32.0263 10.6856 32.2907C10.4667 32.57 10.4697 32.4383 10.6252 32.4516L10.4972 33.9461C11.1509 34.0021 11.5888 33.5698 11.8662 33.216C12.1551 32.8473 12.4648 32.3073 12.824 31.6851L11.5249 30.9351ZM8.63966 31.3108C8.86928 31.9825 9.06741 32.5681 9.27959 32.9818C9.48424 33.3808 9.83631 33.8895 10.4972 33.9461L10.6252 32.4516C10.788 32.4655 10.7721 32.6049 10.6143 32.2973C10.464 32.0043 10.3052 31.5459 10.059 30.8256L8.63966 31.3108ZM6.02994 21.6777C6.66168 20.5835 6.9771 20.0445 7.28576 19.693L6.15855 18.7033C5.72743 19.1944 5.32632 19.8965 4.73091 20.9277L6.02994 21.6777ZM15.4588 27.1215C15.7752 26.5735 16.0334 26.1265 16.2332 25.7482L14.9069 25.0475C14.7232 25.3953 14.4814 25.8144 14.1598 26.3715L15.4588 27.1215ZM20.1237 27.1215L22.7585 31.6851L24.0575 30.9351L21.4227 26.3715L20.1237 27.1215ZM33.4864 25.4914L30.8515 20.9277L29.5525 21.6777L32.1873 26.2414L33.4864 25.4914ZM26.9428 31.3108L27.3086 30.2408L25.8892 29.7556L25.5234 30.8256L26.9428 31.3108ZM29.9605 28.7097L31.0701 28.9279L31.3595 27.4561L30.25 27.2379L29.9605 28.7097ZM27.3086 30.2408C27.5223 29.6155 27.6612 29.2136 27.8016 28.9266C27.9328 28.6582 28.0241 28.5803 28.0944 28.5397L27.3444 27.2407C26.9164 27.4878 26.6549 27.8571 26.4541 28.2675C26.2625 28.6592 26.0903 29.1674 25.8892 29.7556L27.3086 30.2408ZM30.25 27.2379C29.64 27.1179 29.1138 27.013 28.6788 26.9831C28.223 26.9517 27.7724 26.9936 27.3444 27.2407L28.0944 28.5397C28.1647 28.4992 28.2778 28.4591 28.5759 28.4796C28.8946 28.5015 29.3121 28.5822 29.9605 28.7097L30.25 27.2379ZM32.1873 26.2414C32.5715 26.9068 32.8162 27.3344 32.9416 27.6461C33.074 27.9753 32.9615 27.9069 33.0508 27.7788L34.2811 28.6369C34.6564 28.0988 34.501 27.5034 34.3332 27.0863C34.1584 26.6517 33.8456 26.1136 33.4864 25.4914L32.1873 26.2414ZM31.0701 28.9279C31.7666 29.0649 32.3728 29.1862 32.8371 29.2093C33.285 29.2315 33.9016 29.181 34.2811 28.6369L33.0508 27.7788C33.1443 27.6448 33.257 27.7283 32.9116 27.7111C32.5828 27.6948 32.1064 27.603 31.3595 27.4561L31.0701 28.9279ZM22.7585 31.6851C23.1177 32.3073 23.4273 32.8473 23.7163 33.216C23.9936 33.5698 24.4315 34.0021 25.0852 33.9461L24.9572 32.4516C25.1128 32.4383 25.1158 32.57 24.8969 32.2907C24.6896 32.0263 24.4417 31.6006 24.0575 30.9351L22.7585 31.6851ZM25.5234 30.8256C25.2772 31.5459 25.1185 32.0043 24.9682 32.2973C24.8104 32.6049 24.7944 32.4655 24.9572 32.4516L25.0852 33.9461C25.7461 33.8895 26.0982 33.3808 26.3029 32.9818C26.515 32.5681 26.7132 31.9825 26.9428 31.3108L25.5234 30.8256ZM21.4227 26.3715C21.0974 25.808 20.8537 25.3857 20.6694 25.0359L19.3423 25.7352C19.5433 26.1165 19.8037 26.5673 20.1237 27.1215L21.4227 26.3715ZM7.91319 18.4879C7.16877 16.9856 6.74996 15.2928 6.74996 13.5H5.24996C5.24996 15.5289 5.72443 17.4492 6.56914 19.1539L7.91319 18.4879ZM18 24.75C17.2497 24.75 16.5174 24.6767 15.8094 24.537L15.5191 26.0086C16.3221 26.1671 17.1517 26.25 18 26.25V24.75ZM15.8094 24.537C12.3399 23.8526 9.44084 21.5709 7.91319 18.4879L6.56914 19.1539C8.29928 22.6455 11.5825 25.232 15.5191 26.0086L15.8094 24.537ZM16.1693 25.849L16.2634 25.7239L15.0651 24.8217L14.9709 24.9468L16.1693 25.849ZM19.8814 24.5935C19.2701 24.6964 18.6416 24.75 18 24.75V26.25C18.7253 26.25 19.4371 26.1894 20.1303 26.0727L19.8814 24.5935ZM20.7559 25.3855V25.3331H19.2559V25.3855H20.7559ZM29.25 13.5C29.25 15.3593 28.7995 17.1112 28.0024 18.6547L29.3351 19.343C30.2396 17.5918 30.75 15.6044 30.75 13.5H29.25ZM28.0024 18.6547C26.4072 21.7435 23.424 23.9973 19.8814 24.5935L20.1303 26.0727C24.1501 25.3962 27.5287 22.8407 29.3351 19.343L28.0024 18.6547ZM30.8515 20.9277C30.1605 19.7308 29.7303 18.9698 29.1837 18.4536L28.1538 19.5441C28.5006 19.8716 28.8072 20.3869 29.5525 21.6777L30.8515 20.9277ZM7.28576 19.693C7.33952 19.6317 7.42818 19.5654 7.57445 19.4928L6.90788 18.149C6.66719 18.2684 6.38979 18.4399 6.15855 18.7033L7.28576 19.693Z" fill="#75605F"/>
</svg>
