<svg width="32" height="32" viewBox="0 0 32 32" fill="none" xmlns="http://www.w3.org/2000/svg">
<rect width="32" height="32" rx="16" fill="#75605F"/>
<path d="M7.19158 15.6475C11.8444 13.5777 14.9471 12.2131 16.4995 11.5539C20.932 9.6715 21.853 9.34451 22.4533 9.3336C22.5853 9.33134 22.8806 9.36475 23.0718 9.52318C23.2333 9.65696 23.2777 9.83767 23.2989 9.9645C23.3202 10.0913 23.3467 10.3803 23.3256 10.606C23.0854 13.1828 22.0461 19.4361 21.5174 22.3222C21.2936 23.5434 20.8531 23.9528 20.4266 23.9929C19.4997 24.08 18.7959 23.3675 17.8982 22.7666C16.4934 21.8265 15.6998 21.2412 14.3363 20.3237C12.7605 19.2635 13.782 18.6807 14.6801 17.7284C14.9151 17.4791 18.9989 13.6865 19.0779 13.3425C19.0878 13.2994 19.097 13.1391 19.0037 13.0544C18.9103 12.9697 18.7726 12.9986 18.6732 13.0217C18.5323 13.0543 16.2882 14.5688 11.9409 17.565C11.3039 18.0116 10.7269 18.2292 10.21 18.2178C9.64013 18.2052 8.54391 17.8888 7.72898 17.6183C6.72944 17.2866 5.93502 17.1112 6.0042 16.5478C6.04023 16.2543 6.43602 15.9542 7.19158 15.6475Z" fill="white"/>
</svg>
