<svg width="32" height="32" viewBox="0 0 32 32" fill="none" xmlns="http://www.w3.org/2000/svg">
<rect width="32" height="32" rx="16" fill="#75605F"/>
<path fill-rule="evenodd" clip-rule="evenodd" d="M26.1772 11.0229C26.3256 10.5285 26.1772 10.165 25.4714 10.165H23.1375C22.5441 10.165 22.2707 10.4789 22.1223 10.8252C22.1223 10.8252 20.9353 13.718 19.254 15.5971C18.71 16.1411 18.4628 16.314 18.166 16.314C18.0177 16.314 17.803 16.1411 17.803 15.6467V11.0229C17.803 10.4294 17.6307 10.165 17.1361 10.165H13.4686C13.0979 10.165 12.8748 10.4404 12.8748 10.7015C12.8748 11.2641 13.7153 11.3938 13.802 12.9762V16.4132C13.802 17.1667 13.666 17.3034 13.3692 17.3034C12.5781 17.3034 10.6536 14.3974 9.51202 11.0724C9.2883 10.4261 9.06391 10.165 8.46744 10.165H6.13356C5.46674 10.165 5.33337 10.4789 5.33337 10.8252C5.33337 11.4433 6.12473 14.5094 9.01757 18.5643C10.9464 21.3333 13.6633 22.8347 16.1359 22.8347C17.6196 22.8347 17.803 22.5012 17.803 21.9269V19.834C17.803 19.1671 17.9435 19.0341 18.4131 19.0341C18.7595 19.0341 19.3528 19.2071 20.7376 20.5423C22.32 22.1245 22.5807 22.8347 23.4709 22.8347H25.8048C26.4716 22.8347 26.8051 22.5012 26.6127 21.8433C26.4023 21.1874 25.6468 20.2362 24.6442 19.1083C24.1003 18.4653 23.2842 17.773 23.0372 17.4269C22.6909 16.9818 22.7898 16.7841 23.0372 16.3887C23.0372 16.3887 25.8805 12.3831 26.1772 11.0231V11.0229Z" fill="white"/>
</svg>
